<?xml version="1.0" standalone="no"?>
<!DOCTYPE svg PUBLIC "-//W3C//DTD SVG 20010904//EN"
 "http://www.w3.org/TR/2001/REC-SVG-20010904/DTD/svg10.dtd">
<svg version="1.0" xmlns="http://www.w3.org/2000/svg"
 width="280.000000pt" height="167.000000pt" viewBox="0 0 280.000000 167.000000"
 preserveAspectRatio="xMidYMid meet">

<g transform="translate(0.000000,167.000000) scale(0.100000,-0.100000)"
fill="#000000" stroke="none">
<path d="M195 1638 c3 -13 47 -292 99 -621 52 -330 97 -601 100 -604 6 -6 16
-7 1406 -167 547 -63 995 -114 996 -113 2 2 -138 970 -141 974 -2 4 -2438 553
-2453 553 -8 0 -10 -8 -7 -22z m318 -287 c4 -4 17 -80 29 -169 12 -88 25 -159
28 -157 4 2 27 70 51 151 l44 146 44 -6 c25 -3 46 -8 49 -10 2 -3 -16 -66 -41
-141 l-46 -136 100 -217 c56 -119 103 -225 106 -236 5 -17 2 -18 -38 -11 -24
4 -49 12 -55 18 -6 7 -42 83 -80 170 -38 86 -71 157 -74 157 -3 0 -14 -21 -23
-47 -15 -44 -15 -57 -2 -152 8 -57 12 -107 9 -110 -7 -8 -77 -1 -87 9 -5 4
-17 72 -27 151 -41 310 -59 447 -69 509 -18 109 -18 109 32 98 23 -5 46 -13
50 -17z m481 -93 c110 -21 126 -32 126 -85 0 -38 3 -38 -91 -18 -40 9 -74 13
-77 10 -3 -3 1 -51 9 -107 l14 -103 74 -12 c40 -7 75 -14 77 -15 2 -2 6 -23
10 -47 l7 -44 -62 7 c-34 4 -69 10 -77 13 -17 6 -17 -20 -1 -132 l12 -80 40
-6 c22 -4 61 -10 87 -13 47 -7 47 -7 54 -52 3 -25 4 -47 1 -50 -6 -6 -250 26
-259 35 -3 3 -18 103 -33 221 -15 118 -35 274 -46 345 -25 172 -25 169 8 160
15 -3 72 -15 127 -27z m257 -56 c3 -4 43 -100 89 -214 46 -115 85 -206 88
-204 2 3 -6 82 -18 178 -11 95 -22 182 -23 193 -2 20 5 22 59 10 19 -4 23 -24
58 -307 20 -167 40 -320 43 -341 l6 -38 -39 3 -39 3 -89 213 c-49 117 -90 211
-92 209 -2 -1 8 -86 22 -187 31 -239 32 -222 -13 -214 -21 4 -40 8 -42 10 -4
4 -90 656 -91 688 0 16 5 17 38 11 20 -3 40 -10 43 -13z m390 -76 c59 -13 112
-27 118 -30 6 -4 11 -25 11 -46 0 -39 0 -39 -32 -33 -52 9 -53 9 -51 -12 1
-11 16 -138 34 -283 17 -145 29 -266 26 -269 -4 -3 -21 -3 -39 1 l-33 6 -33
277 c-19 153 -36 285 -38 294 -3 10 -20 18 -45 22 -22 3 -42 7 -44 9 -1 1 -6
22 -10 46 -8 51 -12 50 136 18z m257 -63 c5 -10 48 -153 95 -318 47 -165 89
-308 92 -317 6 -15 1 -18 -28 -18 -35 0 -36 1 -52 57 -9 32 -18 66 -21 76 -3
9 -11 17 -17 17 -7 0 -29 3 -49 6 l-37 6 -3 -68 -3 -69 -35 3 c-19 2 -36 5
-38 7 -4 4 29 605 34 623 5 18 52 15 62 -5z m269 -49 c37 -10 60 -24 82 -50
58 -71 79 -236 36 -284 -17 -18 -15 -25 34 -161 28 -78 49 -144 47 -147 -3 -2
-18 -1 -34 3 -28 6 -33 14 -68 113 -55 158 -61 172 -78 172 -19 0 -20 -19 -3
-158 7 -57 11 -105 8 -107 -4 -2 -19 -1 -34 2 -33 6 -28 -15 -67 308 -17 143
-34 277 -37 299 l-6 38 34 -7 c19 -3 57 -13 86 -21z m325 -76 c49 -35 65 -82
87 -261 27 -213 27 -267 1 -300 -30 -38 -63 -42 -109 -13 -60 38 -76 85 -100
286 -24 198 -26 253 -10 281 22 42 78 45 131 7z"/>
<path d="M1890 850 c0 -19 -3 -68 -6 -109 -7 -79 -1 -91 44 -91 27 0 27 2 -8
130 -21 78 -29 96 -30 70z"/>
<path d="M2135 903 c3 -21 9 -65 13 -97 6 -55 9 -60 36 -67 47 -13 59 5 54 76
-6 72 -22 101 -62 115 -44 15 -47 13 -41 -27z"/>
<path d="M2422 867 c-7 -8 -5 -62 9 -177 26 -226 26 -228 55 -247 23 -15 27
-15 41 0 14 14 13 33 -6 204 -19 159 -25 191 -43 211 -24 25 -41 28 -56 9z"/>
<path d="M10 1513 c0 -24 190 -1226 194 -1231 2 -1 529 -63 1172 -137 643 -74
1182 -136 1197 -138 l29 -4 -7 66 c-4 36 -8 67 -8 67 -1 1 -342 41 -757 88
-415 48 -863 100 -995 116 -132 16 -287 34 -345 41 -58 6 -109 15 -113 19 -4
3 -43 236 -87 516 -44 280 -82 523 -85 541 -5 30 -9 32 -83 48 -42 9 -85 19
-94 21 -13 4 -18 0 -18 -13z"/>
</g>
</svg>
